<mxfile host="app.diagrams.net" agent="Mozilla/5.0 (Windows NT 10.0; Win64; x64) AppleWebKit/537.36 (KHTML, like Gecko) Chrome/140.0.0.0 Safari/537.36" version="28.2.3">
  <diagram name="Page-1" id="oAHeV09rv-WX6wj80ufI">
    <mxGraphModel dx="786" dy="417" grid="1" gridSize="10" guides="1" tooltips="1" connect="1" arrows="1" fold="1" page="1" pageScale="1" pageWidth="827" pageHeight="1169" math="0" shadow="0">
      <root>
        <mxCell id="0" />
        <mxCell id="1" parent="0" />
        <mxCell id="U_alqd70DH_q79eQ3bty-1" value="" style="sketch=0;aspect=fixed;pointerEvents=1;shadow=0;dashed=0;html=1;strokeColor=none;labelPosition=center;verticalLabelPosition=bottom;verticalAlign=top;align=center;fillColor=#00188D;shape=mxgraph.azure.laptop" vertex="1" parent="1">
          <mxGeometry x="90" y="150" width="83.33" height="50" as="geometry" />
        </mxCell>
        <mxCell id="U_alqd70DH_q79eQ3bty-2" value="" style="endArrow=classic;html=1;rounded=0;exitX=0.92;exitY=0.5;exitDx=0;exitDy=0;exitPerimeter=0;" edge="1" parent="1" source="U_alqd70DH_q79eQ3bty-1">
          <mxGeometry width="50" height="50" relative="1" as="geometry">
            <mxPoint x="310" y="240" as="sourcePoint" />
            <mxPoint x="240" y="175" as="targetPoint" />
          </mxGeometry>
        </mxCell>
        <mxCell id="U_alqd70DH_q79eQ3bty-38" style="edgeStyle=orthogonalEdgeStyle;rounded=0;orthogonalLoop=1;jettySize=auto;html=1;" edge="1" parent="1" source="U_alqd70DH_q79eQ3bty-4" target="U_alqd70DH_q79eQ3bty-9">
          <mxGeometry relative="1" as="geometry" />
        </mxCell>
        <mxCell id="U_alqd70DH_q79eQ3bty-4" value="" style="outlineConnect=0;dashed=0;verticalLabelPosition=bottom;verticalAlign=top;align=center;html=1;shape=mxgraph.aws3.internet_gateway;fillColor=#F58536;gradientColor=none;" vertex="1" parent="1">
          <mxGeometry x="241" y="139" width="69" height="72" as="geometry" />
        </mxCell>
        <mxCell id="U_alqd70DH_q79eQ3bty-6" value="IGW" style="text;html=1;align=center;verticalAlign=middle;whiteSpace=wrap;rounded=0;" vertex="1" parent="1">
          <mxGeometry x="231" y="211" width="89" height="44.5" as="geometry" />
        </mxCell>
        <mxCell id="U_alqd70DH_q79eQ3bty-20" value="VPC" style="points=[[0,0],[0.25,0],[0.5,0],[0.75,0],[1,0],[1,0.25],[1,0.5],[1,0.75],[1,1],[0.75,1],[0.5,1],[0.25,1],[0,1],[0,0.75],[0,0.5],[0,0.25]];outlineConnect=0;gradientColor=none;html=1;whiteSpace=wrap;fontSize=12;fontStyle=0;container=1;pointerEvents=0;collapsible=0;recursiveResize=0;shape=mxgraph.aws4.group;grIcon=mxgraph.aws4.group_vpc2;strokeColor=#8C4FFF;fillColor=none;verticalAlign=top;align=left;spacingLeft=30;fontColor=#AAB7B8;dashed=0;" vertex="1" parent="1">
          <mxGeometry x="400" y="90" width="420" height="340" as="geometry" />
        </mxCell>
        <mxCell id="U_alqd70DH_q79eQ3bty-9" value="" style="outlineConnect=0;dashed=0;verticalLabelPosition=bottom;verticalAlign=top;align=center;html=1;shape=mxgraph.aws3.application_load_balancer;fillColor=#F58534;gradientColor=none;" vertex="1" parent="U_alqd70DH_q79eQ3bty-20">
          <mxGeometry x="80" y="17" width="69" height="72" as="geometry" />
        </mxCell>
        <mxCell id="U_alqd70DH_q79eQ3bty-34" style="edgeStyle=orthogonalEdgeStyle;rounded=0;orthogonalLoop=1;jettySize=auto;html=1;" edge="1" parent="U_alqd70DH_q79eQ3bty-20" source="U_alqd70DH_q79eQ3bty-11" target="U_alqd70DH_q79eQ3bty-22">
          <mxGeometry relative="1" as="geometry">
            <Array as="points">
              <mxPoint x="259" y="100" />
              <mxPoint x="65" y="100" />
            </Array>
          </mxGeometry>
        </mxCell>
        <mxCell id="U_alqd70DH_q79eQ3bty-35" value="" style="edgeStyle=orthogonalEdgeStyle;rounded=0;orthogonalLoop=1;jettySize=auto;html=1;" edge="1" parent="U_alqd70DH_q79eQ3bty-20" source="U_alqd70DH_q79eQ3bty-11" target="U_alqd70DH_q79eQ3bty-32">
          <mxGeometry relative="1" as="geometry">
            <Array as="points">
              <mxPoint x="259" y="100" />
              <mxPoint x="355" y="100" />
            </Array>
          </mxGeometry>
        </mxCell>
        <mxCell id="U_alqd70DH_q79eQ3bty-36" style="edgeStyle=orthogonalEdgeStyle;rounded=0;orthogonalLoop=1;jettySize=auto;html=1;" edge="1" parent="U_alqd70DH_q79eQ3bty-20" source="U_alqd70DH_q79eQ3bty-11" target="U_alqd70DH_q79eQ3bty-31">
          <mxGeometry relative="1" as="geometry" />
        </mxCell>
        <mxCell id="U_alqd70DH_q79eQ3bty-11" value="" style="sketch=0;points=[[0,0,0],[0.25,0,0],[0.5,0,0],[0.75,0,0],[1,0,0],[0,1,0],[0.25,1,0],[0.5,1,0],[0.75,1,0],[1,1,0],[0,0.25,0],[0,0.5,0],[0,0.75,0],[1,0.25,0],[1,0.5,0],[1,0.75,0]];outlineConnect=0;fontColor=#232F3E;fillColor=#ED7100;strokeColor=#ffffff;dashed=0;verticalLabelPosition=bottom;verticalAlign=top;align=center;html=1;fontSize=12;fontStyle=0;aspect=fixed;shape=mxgraph.aws4.resourceIcon;resIcon=mxgraph.aws4.auto_scaling3;" vertex="1" parent="U_alqd70DH_q79eQ3bty-20">
          <mxGeometry x="220" y="17" width="78" height="78" as="geometry" />
        </mxCell>
        <mxCell id="U_alqd70DH_q79eQ3bty-12" value="" style="endArrow=classic;html=1;rounded=0;exitX=1;exitY=0.5;exitDx=0;exitDy=0;exitPerimeter=0;" edge="1" parent="U_alqd70DH_q79eQ3bty-20" source="U_alqd70DH_q79eQ3bty-9" target="U_alqd70DH_q79eQ3bty-11">
          <mxGeometry width="50" height="50" relative="1" as="geometry">
            <mxPoint x="90" y="160" as="sourcePoint" />
            <mxPoint x="140" y="85" as="targetPoint" />
          </mxGeometry>
        </mxCell>
        <mxCell id="U_alqd70DH_q79eQ3bty-13" value="" style="sketch=0;points=[[0,0,0],[0.25,0,0],[0.5,0,0],[0.75,0,0],[1,0,0],[0,1,0],[0.25,1,0],[0.5,1,0],[0.75,1,0],[1,1,0],[0,0.25,0],[0,0.5,0],[0,0.75,0],[1,0.25,0],[1,0.5,0],[1,0.75,0]];outlineConnect=0;fontColor=#232F3E;fillColor=#ED7100;strokeColor=#ffffff;dashed=0;verticalLabelPosition=bottom;verticalAlign=top;align=center;html=1;fontSize=12;fontStyle=0;aspect=fixed;shape=mxgraph.aws4.resourceIcon;resIcon=mxgraph.aws4.ec2;" vertex="1" parent="U_alqd70DH_q79eQ3bty-20">
          <mxGeometry x="185" y="210" width="50" height="50" as="geometry" />
        </mxCell>
        <mxCell id="U_alqd70DH_q79eQ3bty-10" value="" style="sketch=0;points=[[0,0,0],[0.25,0,0],[0.5,0,0],[0.75,0,0],[1,0,0],[0,1,0],[0.25,1,0],[0.5,1,0],[0.75,1,0],[1,1,0],[0,0.25,0],[0,0.5,0],[0,0.75,0],[1,0.25,0],[1,0.5,0],[1,0.75,0]];outlineConnect=0;fontColor=#232F3E;fillColor=#ED7100;strokeColor=#ffffff;dashed=0;verticalLabelPosition=bottom;verticalAlign=top;align=center;html=1;fontSize=12;fontStyle=0;aspect=fixed;shape=mxgraph.aws4.resourceIcon;resIcon=mxgraph.aws4.ec2;" vertex="1" parent="U_alqd70DH_q79eQ3bty-20">
          <mxGeometry x="40" y="210" width="50" height="50" as="geometry" />
        </mxCell>
        <mxCell id="U_alqd70DH_q79eQ3bty-22" value="Subnet" style="sketch=0;outlineConnect=0;gradientColor=none;html=1;whiteSpace=wrap;fontSize=12;fontStyle=0;shape=mxgraph.aws4.group;grIcon=mxgraph.aws4.group_subnet;strokeColor=#879196;fillColor=none;verticalAlign=top;align=left;spacingLeft=30;fontColor=#879196;dashed=0;" vertex="1" parent="U_alqd70DH_q79eQ3bty-20">
          <mxGeometry y="150" width="130" height="130" as="geometry" />
        </mxCell>
        <mxCell id="U_alqd70DH_q79eQ3bty-31" value="Subnet" style="sketch=0;outlineConnect=0;gradientColor=none;html=1;whiteSpace=wrap;fontSize=12;fontStyle=0;shape=mxgraph.aws4.group;grIcon=mxgraph.aws4.group_subnet;strokeColor=#879196;fillColor=none;verticalAlign=top;align=left;spacingLeft=30;fontColor=#879196;dashed=0;" vertex="1" parent="U_alqd70DH_q79eQ3bty-20">
          <mxGeometry x="145" y="150" width="130" height="130" as="geometry" />
        </mxCell>
        <mxCell id="U_alqd70DH_q79eQ3bty-32" value="Subnet" style="sketch=0;outlineConnect=0;gradientColor=none;html=1;whiteSpace=wrap;fontSize=12;fontStyle=0;shape=mxgraph.aws4.group;grIcon=mxgraph.aws4.group_subnet;strokeColor=#879196;fillColor=none;verticalAlign=top;align=left;spacingLeft=30;fontColor=#879196;dashed=0;" vertex="1" parent="U_alqd70DH_q79eQ3bty-20">
          <mxGeometry x="290" y="150" width="130" height="130" as="geometry" />
        </mxCell>
        <mxCell id="U_alqd70DH_q79eQ3bty-21" value="" style="sketch=0;points=[[0,0,0],[0.25,0,0],[0.5,0,0],[0.75,0,0],[1,0,0],[0,1,0],[0.25,1,0],[0.5,1,0],[0.75,1,0],[1,1,0],[0,0.25,0],[0,0.5,0],[0,0.75,0],[1,0.25,0],[1,0.5,0],[1,0.75,0]];outlineConnect=0;fontColor=#232F3E;fillColor=#ED7100;strokeColor=#ffffff;dashed=0;verticalLabelPosition=bottom;verticalAlign=top;align=center;html=1;fontSize=12;fontStyle=0;aspect=fixed;shape=mxgraph.aws4.resourceIcon;resIcon=mxgraph.aws4.ec2;" vertex="1" parent="U_alqd70DH_q79eQ3bty-20">
          <mxGeometry x="330" y="210" width="50" height="50" as="geometry" />
        </mxCell>
        <mxCell id="U_alqd70DH_q79eQ3bty-39" value="Load Balance the Internet Traffic Across Instances" style="text;html=1;align=center;verticalAlign=middle;whiteSpace=wrap;rounded=0;" vertex="1" parent="U_alqd70DH_q79eQ3bty-20">
          <mxGeometry x="85" y="300" width="250" height="30" as="geometry" />
        </mxCell>
      </root>
    </mxGraphModel>
  </diagram>
</mxfile>
